<?xml version="1.0" encoding="utf-8"?>
<!-- Svg Vector Icons : http://www.onlinewebfonts.com/icon -->
<!DOCTYPE svg PUBLIC "-//W3C//DTD SVG 1.1//EN" "http://www.w3.org/Graphics/SVG/1.1/DTD/svg11.dtd">
<svg version="1.1" xmlns="http://www.w3.org/2000/svg" xmlns:xlink="http://www.w3.org/1999/xlink" x="0px" y="0px" viewBox="0 0 256 256" enable-background="new 0 0 256 256" xml:space="preserve">
<metadata> Svg Vector Icons : http://www.onlinewebfonts.com/icon </metadata>
<g><g><g><g><g><path fill="green" d="M111,211.1c-4.2,0-8.5-4-9.3-4.9c-2.9-2.1-79.8-60.1-88.2-68.5c-3.1-3.1-3.6-6.2-3.5-8.2c0.2-4.9,4-8.3,4.4-8.6l85.5-70.7c0.9-1,5.3-5.3,9.4-5.3c1.9,0,6.3,0.9,6.3,8.8v36.5h120.7c0.3,0,0.8-0.1,1.3-0.1c1.4,0,8.4,0.5,8.4,11.1v56c0,7.8-5.5,9.8-8.4,9.8H118.1v33.4C118.1,209.7,113.7,211.1,111,211.1z M111,204.4v3.4V204.4L111,204.4z M108.7,51.9c-1.1,0.5-2.9,1.9-4.2,3.3l-85.7,71c-0.5,0.5-2,2.1-2,3.8c0,1,0.5,2,1.5,3.1c8.1,8.1,87.1,67.6,87.8,68.2c1.8,1.7,3.9,3.1,4.8,3.2c0-0.2,0.4-1.2,0.4-4v-40.2h126.2c1.1,0,1.7-1.1,1.7-3.1v-56c0-1.3-0.2-4.3-1.7-4.3l-0.4,0.1l-0.6,0H108.8V53.7C108.8,52.8,108.8,52.3,108.7,51.9z"/></g></g></g><g></g><g></g><g></g><g></g><g></g><g></g><g></g><g></g><g></g><g></g><g></g><g></g><g></g><g></g><g></g></g></g>
</svg>